<svg xmlns="http://www.w3.org/2000/svg" xmlns:xlink="http://www.w3.org/1999/xlink" width="1200" height="454" onload="init(evt)" version="1.1" viewBox="0 0 1200 454"><defs><linearGradient id="background" x1="0" x2="0" y1="0" y2="1"><stop offset="5%" stop-color="#eee"/><stop offset="95%" stop-color="#eeeeb0"/></linearGradient></defs><style type="text/css">text { font-family:Verdana; font-size:12px; fill:rgb(0,0,0); } #search, #ignorecase { opacity:0.1; cursor:pointer; } #search:hover, #search.show, #ignorecase:hover, #ignorecase.show { opacity:1; } #subtitle { text-anchor:middle; font-color:rgb(160,160,160); } #title { text-anchor:middle; font-size:17px} #unzoom { cursor:pointer; } #frames &gt; *:hover { stroke:black; stroke-width:0.5; cursor:pointer; } .hide { display:none; } .parent { opacity:0.5; }</style><script type="text/ecmascript"><![CDATA[
	"use strict";
	var details, searchbtn, unzoombtn, matchedtxt, svg, searching, currentSearchTerm, ignorecase, ignorecaseBtn;
	function init(evt) {
		details = document.getElementById("details").firstChild;
		searchbtn = document.getElementById("search");
		ignorecaseBtn = document.getElementById("ignorecase");
		unzoombtn = document.getElementById("unzoom");
		matchedtxt = document.getElementById("matched");
		svg = document.getElementsByTagName("svg")[0];
		searching = 0;
		currentSearchTerm = null;
	}

	window.addEventListener("click", function(e) {
		var target = find_group(e.target);
		if (target) {
			if (target.nodeName == "a") {
				if (e.ctrlKey === false) return;
				e.preventDefault();
			}
			if (target.classList.contains("parent")) unzoom();
			zoom(target);
		}
		else if (e.target.id == "unzoom") unzoom();
		else if (e.target.id == "search") search_prompt();
		else if (e.target.id == "ignorecase") toggle_ignorecase();
	}, false)

	// mouse-over for info
	// show
	window.addEventListener("mouseover", function(e) {
		var target = find_group(e.target);
		if (target) details.nodeValue = "Function: " + g_to_text(target);
	}, false)

	// clear
	window.addEventListener("mouseout", function(e) {
		var target = find_group(e.target);
		if (target) details.nodeValue = ' ';
	}, false)

	// ctrl-F for search
	window.addEventListener("keydown",function (e) {
		if (e.keyCode === 114 || (e.ctrlKey && e.keyCode === 70)) {
			e.preventDefault();
			search_prompt();
		}
	}, false)

	// ctrl-I to toggle case-sensitive search
	window.addEventListener("keydown",function (e) {
		if (e.ctrlKey && e.keyCode === 73) {
			e.preventDefault();
			toggle_ignorecase();
		}
	}, false)

	// functions
	function find_child(node, selector) {
		var children = node.querySelectorAll(selector);
		if (children.length) return children[0];
		return;
	}
	function find_group(node) {
		var parent = node.parentElement;
		if (!parent) return;
		if (parent.id == "frames") return node;
		return find_group(parent);
	}
	function orig_save(e, attr, val) {
		if (e.attributes["_orig_" + attr] != undefined) return;
		if (e.attributes[attr] == undefined) return;
		if (val == undefined) val = e.attributes[attr].value;
		e.setAttribute("_orig_" + attr, val);
	}
	function orig_load(e, attr) {
		if (e.attributes["_orig_"+attr] == undefined) return;
		e.attributes[attr].value = e.attributes["_orig_" + attr].value;
		e.removeAttribute("_orig_"+attr);
	}
	function g_to_text(e) {
		var text = find_child(e, "title").firstChild.nodeValue;
		return (text)
	}
	function g_to_func(e) {
		var func = g_to_text(e);
		// if there's any manipulation we want to do to the function
		// name before it's searched, do it here before returning.
		return (func);
	}
	function update_text(e) {
		var r = find_child(e, "rect");
		var t = find_child(e, "text");
		var w = parseFloat(r.attributes.width.value) -3;
		var txt = find_child(e, "title").textContent.replace(/\([^(]*\)$/,"");
		t.attributes.x.value = parseFloat(r.attributes.x.value) + 3;

		// Smaller than this size won't fit anything
		if (w < 2 * 12 * 0.59) {
			t.textContent = "";
			return;
		}

		t.textContent = txt;
		// Fit in full text width
		if (/^ *$/.test(txt) || t.getSubStringLength(0, txt.length) < w)
			return;

		for (var x = txt.length - 2; x > 0; x--) {
			if (t.getSubStringLength(0, x + 2) <= w) {
				t.textContent = txt.substring(0, x) + "..";
				return;
			}
		}
		t.textContent = "";
	}

	// zoom
	function zoom_reset(e) {
		if (e.attributes != undefined) {
			orig_load(e, "x");
			orig_load(e, "width");
		}
		if (e.childNodes == undefined) return;
		for (var i = 0, c = e.childNodes; i < c.length; i++) {
			zoom_reset(c[i]);
		}
	}
	function zoom_child(e, x, ratio) {
		if (e.attributes != undefined) {
			if (e.attributes.x != undefined) {
				orig_save(e, "x");
				e.attributes.x.value = (parseFloat(e.attributes.x.value) - x - 10) * ratio + 10;
				if (e.tagName == "text")
					e.attributes.x.value = find_child(e.parentNode, "rect[x]").attributes.x.value + 3;
			}
			if (e.attributes.width != undefined) {
				orig_save(e, "width");
				e.attributes.width.value = parseFloat(e.attributes.width.value) * ratio;
			}
		}

		if (e.childNodes == undefined) return;
		for (var i = 0, c = e.childNodes; i < c.length; i++) {
			zoom_child(c[i], x - 10, ratio);
		}
	}
	function zoom_parent(e) {
		if (e.attributes) {
			if (e.attributes.x != undefined) {
				orig_save(e, "x");
				e.attributes.x.value = 10;
			}
			if (e.attributes.width != undefined) {
				orig_save(e, "width");
				e.attributes.width.value = parseInt(svg.width.baseVal.value) - (10 * 2);
			}
		}
		if (e.childNodes == undefined) return;
		for (var i = 0, c = e.childNodes; i < c.length; i++) {
			zoom_parent(c[i]);
		}
	}
	function zoom(node) {
		var attr = find_child(node, "rect").attributes;
		var width = parseFloat(attr.width.value);
		var xmin = parseFloat(attr.x.value);
		var xmax = parseFloat(xmin + width);
		var ymin = parseFloat(attr.y.value);
		var ratio = (svg.width.baseVal.value - 2 * 10) / width;

		// XXX: Workaround for JavaScript float issues (fix me)
		var fudge = 0.0001;

		unzoombtn.classList.remove("hide");

		var el = document.getElementById("frames").children;
		for (var i = 0; i < el.length; i++) {
			var e = el[i];
			var a = find_child(e, "rect").attributes;
			var ex = parseFloat(a.x.value);
			var ew = parseFloat(a.width.value);
			var upstack;
			// Is it an ancestor
			if (0 == 0) {
				upstack = parseFloat(a.y.value) > ymin;
			} else {
				upstack = parseFloat(a.y.value) < ymin;
			}
			if (upstack) {
				// Direct ancestor
				if (ex <= xmin && (ex+ew+fudge) >= xmax) {
					e.classList.add("parent");
					zoom_parent(e);
					update_text(e);
				}
				// not in current path
				else
					e.classList.add("hide");
			}
			// Children maybe
			else {
				// no common path
				if (ex < xmin || ex + fudge >= xmax) {
					e.classList.add("hide");
				}
				else {
					zoom_child(e, xmin, ratio);
					update_text(e);
				}
			}
		}
		search();
	}
	function unzoom() {
		unzoombtn.classList.add("hide");
		var el = document.getElementById("frames").children;
		for(var i = 0; i < el.length; i++) {
			el[i].classList.remove("parent");
			el[i].classList.remove("hide");
			zoom_reset(el[i]);
			update_text(el[i]);
		}
		search();
	}

	// search
	function toggle_ignorecase() {
		ignorecase = !ignorecase;
		if (ignorecase) {
			ignorecaseBtn.classList.add("show");
		} else {
			ignorecaseBtn.classList.remove("show");
		}
		reset_search();
		search();
	}
	function reset_search() {
		var el = document.querySelectorAll("#frames rect");
		for (var i = 0; i < el.length; i++) {
			orig_load(el[i], "fill")
		}
	}
	function search_prompt() {
		if (!searching) {
			var term = prompt("Enter a search term (regexp " +
			    "allowed, eg: ^ext4_)"
			    + (ignorecase ? ", ignoring case" : "")
			    + "\nPress Ctrl-i to toggle case sensitivity", "");
			if (term != null) {
				currentSearchTerm = term;
				search();
			}
		} else {
			reset_search();
			searching = 0;
			currentSearchTerm = null;
			searchbtn.classList.remove("show");
			searchbtn.firstChild.nodeValue = "Search"
			matchedtxt.classList.add("hide");
			matchedtxt.firstChild.nodeValue = ""
		}
	}
	function search(term) {
		if (currentSearchTerm === null) return;
		var term = currentSearchTerm;

		var re = new RegExp(term, ignorecase ? 'i' : '');
		var el = document.getElementById("frames").children;
		var matches = new Object();
		var maxwidth = 0;
		for (var i = 0; i < el.length; i++) {
			var e = el[i];
			var func = g_to_func(e);
			var rect = find_child(e, "rect");
			if (func == null || rect == null)
				continue;

			// Save max width. Only works as we have a root frame
			var w = parseFloat(rect.attributes.width.value);
			if (w > maxwidth)
				maxwidth = w;

			if (func.match(re)) {
				// highlight
				var x = parseFloat(rect.attributes.x.value);
				orig_save(rect, "fill");
				rect.attributes.fill.value = "rgb(230,0,230)";

				// remember matches
				if (matches[x] == undefined) {
					matches[x] = w;
				} else {
					if (w > matches[x]) {
						// overwrite with parent
						matches[x] = w;
					}
				}
				searching = 1;
			}
		}
		if (!searching)
			return;

		searchbtn.classList.add("show");
		searchbtn.firstChild.nodeValue = "Reset Search";

		// calculate percent matched, excluding vertical overlap
		var count = 0;
		var lastx = -1;
		var lastw = 0;
		var keys = Array();
		for (k in matches) {
			if (matches.hasOwnProperty(k))
				keys.push(k);
		}
		// sort the matched frames by their x location
		// ascending, then width descending
		keys.sort(function(a, b){
			return a - b;
		});
		// Step through frames saving only the biggest bottom-up frames
		// thanks to the sort order. This relies on the tree property
		// where children are always smaller than their parents.
		var fudge = 0.0001;	// JavaScript floating point
		for (var k in keys) {
			var x = parseFloat(keys[k]);
			var w = matches[keys[k]];
			if (x >= lastx + lastw - fudge) {
				count += w;
				lastx = x;
				lastw = w;
			}
		}
		// display matched percent
		matchedtxt.classList.remove("hide");
		var pct = 100 * count / maxwidth;
		if (pct != 100) pct = pct.toFixed(1)
		matchedtxt.firstChild.nodeValue = "Matched: " + pct + "%";
	}
]]></script><rect width="1200" height="454" x="0" y="0" fill="url(#background)"/><text id="title" x="600" y="24">Flame Graph</text><text id="unzoom" x="10" y="24" class="hide">Reset Zoom</text><text id="search" x="1090" y="24">Search</text><text id="ignorecase" x="1174" y="24">ic</text><g id="frames"><g><title>finish_task_switch (1 samples, 0.04%)</title><rect width=".5" height="15" x="1189.5" y="309" fill="#F1D214" rx="2" ry="2"/></g><g><title>futex_requeue (1 samples, 0.04%)</title><rect width=".5" height="15" x="281.2" y="149" fill="#E47823" rx="2" ry="2"/></g><g><title>__lock_text_start (1 samples, 0.04%)</title><rect width=".5" height="15" x="280.2" y="229" fill="#D51C1D" rx="2" ry="2"/></g><g><title>arch_local_irq_enable (4 samples, 0.17%)</title><rect width="2" height="15" x="1163.1" y="245" fill="#E3A50A" rx="2" ry="2"/></g><g><title>irq_exit (4 samples, 0.17%)</title><rect width="2" height="15" x="1163.1" y="293" fill="#F85335" rx="2" ry="2"/></g><g><title>arch_local_irq_enable (1 samples, 0.04%)</title><rect width=".5" height="15" x="280.7" y="53" fill="#E32818" rx="2" ry="2"/></g><g><title>__perf_event_task_sched_in (9 samples, 0.38%)</title><rect width="4.4" height="15" x="1173.1" y="229" fill="#EC350D" rx="2" ry="2"/></g><g><title>smp_apic_timer_interrupt (4 samples, 0.17%)</title><rect width="2" height="15" x="1163.1" y="309" fill="#EF8D12" rx="2" ry="2"/></g><g><title>paravirt_sched_clock (1 samples, 0.04%)</title><rect width=".5" height="15" x="282.7" y="133" fill="#DB8435" rx="2" ry="2"/></g><g><title>A native intl.js:41 (3 samples, 0.13%)</title><rect width="1.5" height="15" x="273.7" y="373" fill="#D9BE24" rx="2" ry="2"/></g><g><title>irq_exit (4 samples, 0.17%)</title><rect width="2" height="15" x="878.9" y="293" fill="#CEBD09" rx="2" ry="2"/></g><g><title>perf_ctx_unlock (5 samples, 0.21%)</title><rect width="2.5" height="15" x="280.7" y="229" fill="#F1452E" rx="2" ry="2"/></g><g><title>arch_local_irq_enable (2 samples, 0.08%)</title><rect width="1" height="15" x="277.7" y="341" fill="#E1DB32" rx="2" ry="2"/></g><g><title>wrmsrl (9 samples, 0.38%)</title><rect width="4.4" height="15" x="1173.1" y="293" fill="#F2BF23" rx="2" ry="2"/></g><g><title>finish_task_switch (1 samples, 0.04%)</title><rect width=".5" height="15" x="282.7" y="53" fill="#E97212" rx="2" ry="2"/></g><g><title>schedule (1 samples, 0.04%)</title><rect width=".5" height="15" x="278.7" y="181" fill="#CF5320" rx="2" ry="2"/></g><g><title>arch_local_irq_enable (1 samples, 0.04%)</title><rect width=".5" height="15" x="276.7" y="293" fill="#CD1A04" rx="2" ry="2"/></g><g><title>schedule (15 samples, 0.63%)</title><rect width="7.5" height="15" x="1177.5" y="309" fill="#CED605" rx="2" ry="2"/></g><g><title>Unwrap native intl.js:70 (456 samples, 19.26%)</title><rect width="227.4" height="15" x="938.2" y="341" fill="#D25D20" rx="2" ry="2"/><text x="941.25" y="351.5">Unwrap native intl.js:70</text></g><g><title>get_futex_key (1 samples, 0.04%)</title><rect width=".5" height="15" x="280.2" y="277" fill="#DC4520" rx="2" ry="2"/></g><g><title>schedule (1 samples, 0.04%)</title><rect width=".5" height="15" x="280.7" y="101" fill="#F4602D" rx="2" ry="2"/></g><g><title>__lock_text_start (7 samples, 0.30%)</title><rect width="3.5" height="15" x="1174" y="117" fill="#F33209" rx="2" ry="2"/></g><g><title>hash_futex (1 samples, 0.04%)</title><rect width=".5" height="15" x="1173.5" y="149" fill="#F77820" rx="2" ry="2"/></g><g><title>__lru_cache_add (1 samples, 0.04%)</title><rect width=".5" height="15" x="279.7" y="277" fill="#DD190A" rx="2" ry="2"/></g><g><title>__lock_text_start (3 samples, 0.13%)</title><rect width="1.5" height="15" x="1167.6" y="213" fill="#F7D609" rx="2" ry="2"/></g><g><title>arch_perf_update_userpage (1 samples, 0.04%)</title><rect width=".5" height="15" x="282.7" y="165" fill="#EC4326" rx="2" ry="2"/></g><g><title>__schedule (1 samples, 0.04%)</title><rect width=".5" height="15" x="280.7" y="85" fill="#D2CB26" rx="2" ry="2"/></g><g><title>arch_local_irq_enable (2 samples, 0.08%)</title><rect width="1" height="15" x="1166.1" y="309" fill="#D8A304" rx="2" ry="2"/></g><g><title>arch_local_irq_restore (1 samples, 0.04%)</title><rect width=".5" height="15" x="275.2" y="261" fill="#F0AB10" rx="2" ry="2"/></g><g><title>schedule (2 samples, 0.08%)</title><rect width="1" height="15" x="281.7" y="85" fill="#EEA725" rx="2" ry="2"/></g><g><title>sys_clock_gettime (17 samples, 0.72%)</title><rect width="8.5" height="15" x="283.2" y="341" fill="#E51109" rx="2" ry="2"/></g><g><title>do_syscall_64 (24 samples, 1.01%)</title><rect width="11.9" height="15" x="1165.6" y="325" fill="#D54624" rx="2" ry="2"/></g><g><title>do_futex (1 samples, 0.04%)</title><rect width=".5" height="15" x="279.7" y="261" fill="#EBA70B" rx="2" ry="2"/></g><g><title>sys_futex (4 samples, 0.17%)</title><rect width="2" height="15" x="1167.1" y="293" fill="#DD3207" rx="2" ry="2"/></g><g><title>arch_local_irq_enable (1 samples, 0.04%)</title><rect width=".5" height="15" x="282.7" y="37" fill="#FEC224" rx="2" ry="2"/></g><g><title>finish_task_switch (1 samples, 0.04%)</title><rect width=".5" height="15" x="278.7" y="149" fill="#F9A51A" rx="2" ry="2"/></g><g><title>arch_local_irq_restore (1 samples, 0.04%)</title><rect width=".5" height="15" x="278.7" y="309" fill="#FA9A2D" rx="2" ry="2"/></g><g><title>perf_event_update_userpage (1 samples, 0.04%)</title><rect width=".5" height="15" x="282.7" y="181" fill="#FCB60C" rx="2" ry="2"/></g><g><title>__softirqentry_text_start (1 samples, 0.04%)</title><rect width=".5" height="15" x="276.7" y="309" fill="#F8D710" rx="2" ry="2"/></g><g><title>futex_requeue (1 samples, 0.04%)</title><rect width=".5" height="15" x="278.7" y="261" fill="#E5200F" rx="2" ry="2"/></g><g><title>__lock_text_start (1 samples, 0.04%)</title><rect width=".5" height="15" x="275.2" y="277" fill="#D38716" rx="2" ry="2"/></g><g><title>arch_local_irq_enable (6 samples, 0.25%)</title><rect width="3" height="15" x="881.4" y="293" fill="#E3792F" rx="2" ry="2"/></g><g><title>__switch_to_asm (5 samples, 0.21%)</title><rect width="2.5" height="15" x="280.7" y="293" fill="#DD4412" rx="2" ry="2"/></g><g><title>entry_SYSCALL_64_after_swapgs (39 samples, 1.65%)</title><rect width="19.4" height="15" x="1165.6" y="341" fill="#D0081F" rx="2" ry="2"/></g><g><title>entry_SYSCALL_64_after_swapgs (29 samples, 1.23%)</title><rect width="14.5" height="15" x="277.2" y="373" fill="#F4B209" rx="2" ry="2"/></g><g><title>node (2,367 samples, 100.00%)</title><rect width="1180" height="15" x="10" y="389" fill="#F69003" rx="2" ry="2"/><text x="13" y="399.5">node</text></g><g><title>try_to_wake_up (1 samples, 0.04%)</title><rect width=".5" height="15" x="1167.1" y="213" fill="#EDA405" rx="2" ry="2"/></g><g><title>futex_wait_queue_me (1 samples, 0.04%)</title><rect width=".5" height="15" x="280.2" y="197" fill="#DC800B" rx="2" ry="2"/></g><g><title>arch_local_irq_restore (1 samples, 0.04%)</title><rect width=".5" height="15" x="878.9" y="229" fill="#E47E09" rx="2" ry="2"/></g><g><title>__irqentry_text_start (4 samples, 0.17%)</title><rect width="2" height="15" x="878.9" y="325" fill="#FA7121" rx="2" ry="2"/></g><g><title>mark_wake_futex (1 samples, 0.04%)</title><rect width=".5" height="15" x="1169.6" y="261" fill="#F3D62D" rx="2" ry="2"/></g><g><title>futex_wait (1 samples, 0.04%)</title><rect width=".5" height="15" x="280.2" y="213" fill="#E20630" rx="2" ry="2"/></g><g><title>__lock_text_start (1 samples, 0.04%)</title><rect width=".5" height="15" x="1167.1" y="197" fill="#E5851F" rx="2" ry="2"/></g><g><title>__softirqentry_text_start (3 samples, 0.13%)</title><rect width="1.5" height="15" x="275.2" y="325" fill="#F12F29" rx="2" ry="2"/></g><g><title>smp_apic_timer_interrupt (4 samples, 0.17%)</title><rect width="2" height="15" x="878.9" y="309" fill="#FC0634" rx="2" ry="2"/></g><g><title>wake_up_q (7 samples, 0.30%)</title><rect width="3.5" height="15" x="1174" y="149" fill="#CDC32F" rx="2" ry="2"/></g><g><title>arch_local_irq_enable (1 samples, 0.04%)</title><rect width=".5" height="15" x="1189" y="341" fill="#D82A2F" rx="2" ry="2"/></g><g><title>futex_requeue (2 samples, 0.08%)</title><rect width="1" height="15" x="281.7" y="165" fill="#FDB52D" rx="2" ry="2"/></g><g><title>__schedule (1 samples, 0.04%)</title><rect width=".5" height="15" x="279.7" y="133" fill="#FB2D34" rx="2" ry="2"/></g><g><title>sys_futex (9 samples, 0.38%)</title><rect width="4.5" height="15" x="278.7" y="325" fill="#FD1D26" rx="2" ry="2"/></g><g><title>__lock_text_start (1 samples, 0.04%)</title><rect width=".5" height="15" x="279.2" y="229" fill="#F73D2D" rx="2" ry="2"/></g><g><title>do_futex (9 samples, 0.38%)</title><rect width="4.4" height="15" x="1173.1" y="181" fill="#E13B29" rx="2" ry="2"/></g><g><title>finish_task_switch (15 samples, 0.63%)</title><rect width="7.5" height="15" x="1177.5" y="277" fill="#EAC00A" rx="2" ry="2"/></g><g><title>do_futex (5 samples, 0.21%)</title><rect width="2.5" height="15" x="280.7" y="197" fill="#DCC925" rx="2" ry="2"/></g><g><title>retint_user (1 samples, 0.04%)</title><rect width=".5" height="15" x="1185" y="341" fill="#D3A72E" rx="2" ry="2"/></g><g><title>wake_up_q (4 samples, 0.17%)</title><rect width="2" height="15" x="1170.1" y="261" fill="#E6400E" rx="2" ry="2"/></g><g><title>schedule (1 samples, 0.04%)</title><rect width=".5" height="15" x="280.2" y="181" fill="#D2960A" rx="2" ry="2"/></g><g><title>retint_user (2 samples, 0.08%)</title><rect width="1" height="15" x="1189" y="373" fill="#F12F2B" rx="2" ry="2"/></g><g><title>prepare_exit_to_usermode (9 samples, 0.38%)</title><rect width="4.5" height="15" x="880.9" y="309" fill="#F6BF20" rx="2" ry="2"/></g><g><title>futex_wake (1 samples, 0.04%)</title><rect width=".5" height="15" x="279.2" y="293" fill="#E7881C" rx="2" ry="2"/></g><g><title>arch_local_irq_enable (2 samples, 0.08%)</title><rect width="1" height="15" x="884.4" y="245" fill="#CD622D" rx="2" ry="2"/></g><g><title>__switch_to_asm (9 samples, 0.38%)</title><rect width="4.4" height="15" x="1173.1" y="277" fill="#D86036" rx="2" ry="2"/></g><g><title>do_futex (1 samples, 0.04%)</title><rect width=".5" height="15" x="280.2" y="293" fill="#D92007" rx="2" ry="2"/></g><g><title>native_apic_mem_write (1 samples, 0.04%)</title><rect width=".5" height="15" x="276.7" y="325" fill="#D52219" rx="2" ry="2"/></g><g><title>__perf_event_task_sched_in (5 samples, 0.21%)</title><rect width="2.5" height="15" x="280.7" y="245" fill="#F32A10" rx="2" ry="2"/></g><g><title>__softirqentry_text_start (3 samples, 0.13%)</title><rect width="1.5" height="15" x="879.4" y="261" fill="#D7710C" rx="2" ry="2"/></g><g><title>prepare_exit_to_usermode (1 samples, 0.04%)</title><rect width=".5" height="15" x="1185" y="325" fill="#EB8A31" rx="2" ry="2"/></g><g><title>__schedule (15 samples, 0.63%)</title><rect width="7.5" height="15" x="1177.5" y="293" fill="#D11C08" rx="2" ry="2"/></g><g><title>futex_wait_queue_me (1 samples, 0.04%)</title><rect width=".5" height="15" x="280.7" y="117" fill="#E5C819" rx="2" ry="2"/></g><g><title>retint_user (1 samples, 0.04%)</title><rect width=".5" height="15" x="1165.1" y="325" fill="#D4D105" rx="2" ry="2"/></g><g><title>futex_wake (1 samples, 0.04%)</title><rect width=".5" height="15" x="281.2" y="181" fill="#E7C313" rx="2" ry="2"/></g><g><title>futex_requeue (1 samples, 0.04%)</title><rect width=".5" height="15" x="279.7" y="229" fill="#ED3E14" rx="2" ry="2"/></g><g><title>get_futex_key (2 samples, 0.08%)</title><rect width="1" height="15" x="1172.1" y="229" fill="#DEB430" rx="2" ry="2"/></g><g><title>__switch_to_asm (9 samples, 0.38%)</title><rect width="4.4" height="15" x="1173.1" y="261" fill="#EE9825" rx="2" ry="2"/></g><g><title>__switch_to_asm (5 samples, 0.21%)</title><rect width="2.5" height="15" x="280.7" y="277" fill="#E59012" rx="2" ry="2"/></g><g><title>futex_requeue (1 samples, 0.04%)</title><rect width=".5" height="15" x="279.2" y="261" fill="#E9BC00" rx="2" ry="2"/></g><g><title>futex_wait (1 samples, 0.04%)</title><rect width=".5" height="15" x="280.7" y="133" fill="#F75C01" rx="2" ry="2"/></g><g><title>ctx_sched_in (5 samples, 0.21%)</title><rect width="2.5" height="15" x="280.7" y="213" fill="#D20902" rx="2" ry="2"/></g><g><title>arch_local_irq_enable (2 samples, 0.08%)</title><rect width="1" height="15" x="281.7" y="37" fill="#F3480E" rx="2" ry="2"/></g><g><title>get_futex_key_refs (2 samples, 0.08%)</title><rect width="1" height="15" x="1172.1" y="213" fill="#FE760A" rx="2" ry="2"/></g><g><title>__list_del_entry (1 samples, 0.04%)</title><rect width=".5" height="15" x="1169.6" y="213" fill="#F58B17" rx="2" ry="2"/></g><g><title>finish_task_switch (1 samples, 0.04%)</title><rect width=".5" height="15" x="280.7" y="69" fill="#DB390F" rx="2" ry="2"/></g><g><title>__switch_to_asm (9 samples, 0.38%)</title><rect width="4.4" height="15" x="1173.1" y="245" fill="#F60509" rx="2" ry="2"/></g><g><title>posix_ktime_get_ts (4 samples, 0.17%)</title><rect width="2" height="15" x="1167.1" y="309" fill="#F00133" rx="2" ry="2"/></g><g><title>__lock_text_start (1 samples, 0.04%)</title><rect width=".5" height="15" x="878.9" y="245" fill="#E93831" rx="2" ry="2"/></g><g><title>perf_ctx_unlock (9 samples, 0.38%)</title><rect width="4.4" height="15" x="1173.1" y="213" fill="#E22933" rx="2" ry="2"/></g><g><title>wake_up_q (1 samples, 0.04%)</title><rect width=".5" height="15" x="279.2" y="277" fill="#D72F16" rx="2" ry="2"/></g><g><title>wake_up_q (1 samples, 0.04%)</title><rect width=".5" height="15" x="1167.1" y="229" fill="#DD3C18" rx="2" ry="2"/></g><g><title>do_futex (1 samples, 0.04%)</title><rect width=".5" height="15" x="279.2" y="309" fill="#E20A00" rx="2" ry="2"/></g><g><title>__schedule (1 samples, 0.04%)</title><rect width=".5" height="15" x="280.2" y="165" fill="#EC1F1E" rx="2" ry="2"/></g><g><title>prepare_exit_to_usermode (2 samples, 0.08%)</title><rect width="1" height="15" x="1189" y="357" fill="#D1691D" rx="2" ry="2"/></g><g><title>sched_clock_local (1 samples, 0.04%)</title><rect width=".5" height="15" x="282.7" y="149" fill="#EA7012" rx="2" ry="2"/></g><g><title>__schedule (1 samples, 0.04%)</title><rect width=".5" height="15" x="1189.5" y="325" fill="#E73916" rx="2" ry="2"/></g><g><title>all (2,367 samples, 100%)</title><rect width="1180" height="15" x="10" y="405" fill="#E7602D" rx="2" ry="2"/></g><g><title>irq_exit (4 samples, 0.17%)</title><rect width="2" height="15" x="275.2" y="341" fill="#FB0518" rx="2" ry="2"/></g><g><title>native_apic_mem_write (3 samples, 0.13%)</title><rect width="1.5" height="15" x="879.4" y="277" fill="#FD611A" rx="2" ry="2"/></g><g><title>__lock_text_start (1 samples, 0.04%)</title><rect width=".5" height="15" x="279.7" y="197" fill="#E46F1A" rx="2" ry="2"/></g><g><title>do_futex (4 samples, 0.17%)</title><rect width="2" height="15" x="1167.1" y="261" fill="#D35B0C" rx="2" ry="2"/></g><g><title>get_futex_key (2 samples, 0.08%)</title><rect width="1" height="15" x="281.7" y="181" fill="#D2BF1D" rx="2" ry="2"/></g><g><title>arch_local_irq_enable (1 samples, 0.04%)</title><rect width=".5" height="15" x="1189.5" y="293" fill="#D13C22" rx="2" ry="2"/></g><g><title>futex_requeue (1 samples, 0.04%)</title><rect width=".5" height="15" x="280.7" y="181" fill="#DB7911" rx="2" ry="2"/></g><g><title>do_futex (6 samples, 0.25%)</title><rect width="3" height="15" x="1169.1" y="277" fill="#F93600" rx="2" ry="2"/></g><g><title>__lock_text_start (4 samples, 0.17%)</title><rect width="2" height="15" x="1170.1" y="229" fill="#D4CA22" rx="2" ry="2"/></g><g><title>schedule (1 samples, 0.04%)</title><rect width=".5" height="15" x="282.7" y="85" fill="#EEE40E" rx="2" ry="2"/></g><g><title>__schedule (1 samples, 0.04%)</title><rect width=".5" height="15" x="282.7" y="69" fill="#E5710B" rx="2" ry="2"/></g><g><title>do_futex (2 samples, 0.08%)</title><rect width="1" height="15" x="1172.1" y="261" fill="#FBB229" rx="2" ry="2"/></g><g><title>arch_local_irq_restore (7 samples, 0.30%)</title><rect width="3.5" height="15" x="1174" y="101" fill="#FABE1A" rx="2" ry="2"/></g><g><title>schedule (2 samples, 0.08%)</title><rect width="1" height="15" x="884.4" y="293" fill="#F5E112" rx="2" ry="2"/></g><g><title>futex_wait (1 samples, 0.04%)</title><rect width=".5" height="15" x="279.7" y="181" fill="#E9082C" rx="2" ry="2"/></g><g><title>futex_requeue (1 samples, 0.04%)</title><rect width=".5" height="15" x="280.2" y="261" fill="#D73F31" rx="2" ry="2"/></g><g><title>__lock_text_start (1 samples, 0.04%)</title><rect width=".5" height="15" x="281.2" y="117" fill="#E9A407" rx="2" ry="2"/></g><g><title>AddBoundMethod native intl.js:35 (602 samples, 25.43%)</title><rect width="300.1" height="15" x="885.4" y="357" fill="#E16023" rx="2" ry="2"/><text x="888.4" y="367.5">AddBoundMethod native intl.js:35</text></g><g><title>__unqueue_futex (1 samples, 0.04%)</title><rect width=".5" height="15" x="1169.6" y="245" fill="#EFD61E" rx="2" ry="2"/></g><g><title>native_apic_mem_write (4 samples, 0.17%)</title><rect width="2" height="15" x="1163.1" y="277" fill="#E64C13" rx="2" ry="2"/></g><g><title>__lock_text_start (2 samples, 0.08%)</title><rect width="1" height="15" x="275.7" y="293" fill="#F04C03" rx="2" ry="2"/></g><g><title>arch_local_irq_enable (3 samples, 0.13%)</title><rect width="1.5" height="15" x="879.4" y="245" fill="#EEAF09" rx="2" ry="2"/></g><g><title>get /usr/src/app/node_modules/fast-levenshtein/levenshtein.js:27 (1,800 samples, 76.05%)</title><rect width="897.3" height="15" x="291.7" y="373" fill="#E1DF2A" rx="2" ry="2"/><text x="294.66" y="383.5">get /usr/src/app/node_modules/fast-levenshtein/levenshtein.js:27</text></g><g><title>arch_local_irq_enable (1 samples, 0.04%)</title><rect width=".5" height="15" x="1165.1" y="293" fill="#DF9B36" rx="2" ry="2"/></g><g><title>handle_mm_fault (1 samples, 0.04%)</title><rect width=".5" height="15" x="279.7" y="309" fill="#F59224" rx="2" ry="2"/></g><g><title>__lock_text_start (2 samples, 0.08%)</title><rect width="1" height="15" x="281.7" y="133" fill="#E4CB1F" rx="2" ry="2"/></g><g><title>prepare_exit_to_usermode (1 samples, 0.04%)</title><rect width=".5" height="15" x="1165.1" y="309" fill="#FE7910" rx="2" ry="2"/></g><g><title>Unwrap native intl.js:70 (4 samples, 0.17%)</title><rect width="2" height="15" x="1185.5" y="357" fill="#FC9930" rx="2" ry="2"/></g><g><title>rebalance_domains (1 samples, 0.04%)</title><rect width=".5" height="15" x="275.2" y="293" fill="#D7A535" rx="2" ry="2"/></g><g><title>prepare_exit_to_usermode (15 samples, 0.63%)</title><rect width="7.5" height="15" x="1177.5" y="325" fill="#D8592B" rx="2" ry="2"/></g><g><title>__switch_to_asm (4 samples, 0.17%)</title><rect width="2" height="15" x="1167.1" y="277" fill="#ED6615" rx="2" ry="2"/></g><g><title>retint_user (9 samples, 0.38%)</title><rect width="4.5" height="15" x="880.9" y="325" fill="#DB7F23" rx="2" ry="2"/></g><g><title>smp_apic_timer_interrupt (4 samples, 0.17%)</title><rect width="2" height="15" x="275.2" y="357" fill="#CDC61A" rx="2" ry="2"/></g><g><title>posix_ktime_get_ts (15 samples, 0.63%)</title><rect width="7.5" height="15" x="284.2" y="325" fill="#F42E15" rx="2" ry="2"/></g><g><title>futex_wake (1 samples, 0.04%)</title><rect width=".5" height="15" x="1167.1" y="245" fill="#E52715" rx="2" ry="2"/></g><g><title>__softirqentry_text_start (1 samples, 0.04%)</title><rect width=".5" height="15" x="878.9" y="277" fill="#F0CB12" rx="2" ry="2"/></g><g><title>read_hpet (15 samples, 0.63%)</title><rect width="7.5" height="15" x="284.2" y="277" fill="#CEBA07" rx="2" ry="2"/></g><g><title>do_syscall_64 (29 samples, 1.23%)</title><rect width="14.5" height="15" x="277.2" y="357" fill="#EFA82E" rx="2" ry="2"/></g><g><title>__softirqentry_text_start (4 samples, 0.17%)</title><rect width="2" height="15" x="1163.1" y="261" fill="#DBA136" rx="2" ry="2"/></g><g><title>__lock_text_start (1 samples, 0.04%)</title><rect width=".5" height="15" x="280.7" y="149" fill="#EDB511" rx="2" ry="2"/></g><g><title>arch_local_irq_enable (1 samples, 0.04%)</title><rect width=".5" height="15" x="1185" y="309" fill="#D7B704" rx="2" ry="2"/></g><g><title>finish_task_switch (1 samples, 0.04%)</title><rect width=".5" height="15" x="280.2" y="149" fill="#F2CE34" rx="2" ry="2"/></g><g><title>arch_local_irq_enable (1 samples, 0.04%)</title><rect width=".5" height="15" x="280.2" y="133" fill="#DA2D06" rx="2" ry="2"/></g><g><title>read_hpet (1 samples, 0.04%)</title><rect width=".5" height="15" x="280.2" y="309" fill="#FE0D1F" rx="2" ry="2"/></g><g><title>arch_local_irq_restore (1 samples, 0.04%)</title><rect width=".5" height="15" x="281.2" y="101" fill="#DBAA0E" rx="2" ry="2"/></g><g><title>futex_wait (1 samples, 0.04%)</title><rect width=".5" height="15" x="282.7" y="117" fill="#DEB80B" rx="2" ry="2"/></g><g><title>arch_local_irq_restore (14 samples, 0.59%)</title><rect width="7" height="15" x="284.7" y="261" fill="#D5BB35" rx="2" ry="2"/></g><g><title>futex_wait (2 samples, 0.08%)</title><rect width="1" height="15" x="281.7" y="117" fill="#F03F17" rx="2" ry="2"/></g><g><title>arch_local_irq_enable (1 samples, 0.04%)</title><rect width=".5" height="15" x="279.7" y="101" fill="#E5CE00" rx="2" ry="2"/></g><g><title>plist_del (1 samples, 0.04%)</title><rect width=".5" height="15" x="1169.6" y="229" fill="#D7C232" rx="2" ry="2"/></g><g><title>try_to_wake_up (1 samples, 0.04%)</title><rect width=".5" height="15" x="280.7" y="165" fill="#E36302" rx="2" ry="2"/></g><g><title>__irqentry_text_start (4 samples, 0.17%)</title><rect width="2" height="15" x="275.2" y="373" fill="#E9692F" rx="2" ry="2"/></g><g><title>set_pte_at (1 samples, 0.04%)</title><rect width=".5" height="15" x="279.7" y="293" fill="#D9272E" rx="2" ry="2"/></g><g><title>sys_futex (17 samples, 0.72%)</title><rect width="8.4" height="15" x="1169.1" y="309" fill="#DCBC29" rx="2" ry="2"/></g><g><title>wake_up_q (1 samples, 0.04%)</title><rect width=".5" height="15" x="281.2" y="165" fill="#F05A17" rx="2" ry="2"/></g><g><title>get_futex_key (1 samples, 0.04%)</title><rect width=".5" height="15" x="279.7" y="245" fill="#D5D025" rx="2" ry="2"/></g><g><title>arch_local_irq_restore (1 samples, 0.04%)</title><rect width=".5" height="15" x="279.2" y="213" fill="#FA7014" rx="2" ry="2"/></g><g><title>arch_local_irq_restore (1 samples, 0.04%)</title><rect width=".5" height="15" x="1167.1" y="181" fill="#FE0131" rx="2" ry="2"/></g><g><title>finish_task_switch (1 samples, 0.04%)</title><rect width=".5" height="15" x="279.7" y="117" fill="#FACC13" rx="2" ry="2"/></g><g><title>arch_local_irq_restore (4 samples, 0.17%)</title><rect width="2" height="15" x="1170.1" y="213" fill="#D8092E" rx="2" ry="2"/></g><g><title>__schedule (2 samples, 0.08%)</title><rect width="1" height="15" x="884.4" y="277" fill="#F53603" rx="2" ry="2"/></g><g><title>try_to_wake_up (4 samples, 0.17%)</title><rect width="2" height="15" x="1170.1" y="245" fill="#D25932" rx="2" ry="2"/></g><g><title>A native intl.js:41 (995 samples, 42.04%)</title><rect width="496" height="15" x="389.4" y="357" fill="#E88822" rx="2" ry="2"/><text x="392.37" y="367.5">A native intl.js:41</text></g><g><title>__switch_to_asm (8 samples, 0.34%)</title><rect width="4" height="15" x="1169.1" y="293" fill="#F93A16" rx="2" ry="2"/></g><g><title>wrmsrl (5 samples, 0.21%)</title><rect width="2.5" height="15" x="280.7" y="309" fill="#D8350C" rx="2" ry="2"/></g><g><title>try_to_wake_up (1 samples, 0.04%)</title><rect width=".5" height="15" x="278.7" y="245" fill="#FB9A23" rx="2" ry="2"/></g><g><title>try_to_wake_up (3 samples, 0.13%)</title><rect width="1.5" height="15" x="1167.6" y="229" fill="#D55D1C" rx="2" ry="2"/></g><g><title>schedule (1 samples, 0.04%)</title><rect width=".5" height="15" x="279.7" y="149" fill="#E7D526" rx="2" ry="2"/></g><g><title>futex_wait_queue_me (1 samples, 0.04%)</title><rect width=".5" height="15" x="279.7" y="165" fill="#E7212A" rx="2" ry="2"/></g><g><title>arch_local_irq_enable (1 samples, 0.04%)</title><rect width=".5" height="15" x="278.7" y="133" fill="#E42208" rx="2" ry="2"/></g><g><title>timekeeping_get_ns (15 samples, 0.63%)</title><rect width="7.5" height="15" x="284.2" y="293" fill="#CF202C" rx="2" ry="2"/></g><g><title>__irqentry_text_start (4 samples, 0.17%)</title><rect width="2" height="15" x="1163.1" y="325" fill="#DDBE15" rx="2" ry="2"/></g><g><title>try_to_wake_up (1 samples, 0.04%)</title><rect width=".5" height="15" x="279.7" y="213" fill="#E2E216" rx="2" ry="2"/></g><g><title>__switch_to_asm (5 samples, 0.21%)</title><rect width="2.5" height="15" x="280.7" y="261" fill="#E5E308" rx="2" ry="2"/></g><g><title>futex_wait (1 samples, 0.04%)</title><rect width=".5" height="15" x="278.7" y="213" fill="#E86F13" rx="2" ry="2"/></g><g><title>wake_up_q (3 samples, 0.13%)</title><rect width="1.5" height="15" x="1167.6" y="245" fill="#ED6B18" rx="2" ry="2"/></g><g><title>finish_task_switch (2 samples, 0.08%)</title><rect width="1" height="15" x="884.4" y="261" fill="#F4C50F" rx="2" ry="2"/></g><g><title>get_futex_key (1 samples, 0.04%)</title><rect width=".5" height="15" x="278.7" y="277" fill="#E4171C" rx="2" ry="2"/></g><g><title>compare native intl.js:619 (939 samples, 39.67%)</title><rect width="468.1" height="15" x="417.3" y="341" fill="#FDAD02" rx="2" ry="2"/><text x="420.29" y="351.5">compare native intl.js:619</text></g><g><title>schedule (1 samples, 0.04%)</title><rect width=".5" height="15" x="1189.5" y="341" fill="#CE1110" rx="2" ry="2"/></g><g><title>try_to_wake_up (2 samples, 0.08%)</title><rect width="1" height="15" x="281.7" y="149" fill="#F5951E" rx="2" ry="2"/></g><g><title>__lock_text_start (1 samples, 0.04%)</title><rect width=".5" height="15" x="278.7" y="229" fill="#DCA31F" rx="2" ry="2"/></g><g><title>compare native intl.js:619 (3 samples, 0.13%)</title><rect width="1.5" height="15" x="1187.5" y="357" fill="#F20615" rx="2" ry="2"/></g><g><title>try_to_wake_up (1 samples, 0.04%)</title><rect width=".5" height="15" x="279.2" y="245" fill="#DA5D16" rx="2" ry="2"/></g><g><title>ctx_sched_in (9 samples, 0.38%)</title><rect width="4.4" height="15" x="1173.1" y="197" fill="#E22423" rx="2" ry="2"/></g><g><title>__schedule (2 samples, 0.08%)</title><rect width="1" height="15" x="281.7" y="69" fill="#DF2E0D" rx="2" ry="2"/></g><g><title>perf_ctx_unlock (2 samples, 0.08%)</title><rect width="1" height="15" x="1172.1" y="277" fill="#FCC50A" rx="2" ry="2"/></g><g><title>hrtimer_forward (1 samples, 0.04%)</title><rect width=".5" height="15" x="275.2" y="309" fill="#FCC105" rx="2" ry="2"/></g><g><title>arch_local_irq_enable (15 samples, 0.63%)</title><rect width="7.5" height="15" x="1177.5" y="261" fill="#D91515" rx="2" ry="2"/></g><g><title>arch_local_irq_restore (3 samples, 0.13%)</title><rect width="1.5" height="15" x="1167.6" y="197" fill="#F87B22" rx="2" ry="2"/></g><g><title>ktime_get_ts64 (15 samples, 0.63%)</title><rect width="7.5" height="15" x="284.2" y="309" fill="#F77A04" rx="2" ry="2"/></g><g><title>futex_wake (8 samples, 0.34%)</title><rect width="4" height="15" x="1173.5" y="165" fill="#DB4B0C" rx="2" ry="2"/></g><g><title>rcu_process_callbacks (2 samples, 0.08%)</title><rect width="1" height="15" x="275.7" y="309" fill="#D54E12" rx="2" ry="2"/></g><g><title>posix_ktime_get_ts (9 samples, 0.38%)</title><rect width="4.5" height="15" x="278.7" y="341" fill="#CE0718" rx="2" ry="2"/></g><g><title>clockid_to_kclock (1 samples, 0.04%)</title><rect width=".5" height="15" x="283.7" y="325" fill="#E8DA12" rx="2" ry="2"/></g><g><title>futex_wait_queue_me (1 samples, 0.04%)</title><rect width=".5" height="15" x="278.7" y="197" fill="#EE1C01" rx="2" ry="2"/></g><g><title>__schedule (1 samples, 0.04%)</title><rect width=".5" height="15" x="278.7" y="165" fill="#D69D1D" rx="2" ry="2"/></g><g><title>futex_wait_queue_me (1 samples, 0.04%)</title><rect width=".5" height="15" x="282.7" y="101" fill="#F6B602" rx="2" ry="2"/></g><g><title>rcu_process_callbacks (1 samples, 0.04%)</title><rect width=".5" height="15" x="878.9" y="261" fill="#CD9F22" rx="2" ry="2"/></g><g><title>try_to_wake_up (1 samples, 0.04%)</title><rect width=".5" height="15" x="280.2" y="245" fill="#CE0B09" rx="2" ry="2"/></g><g><title>try_to_wake_up (1 samples, 0.04%)</title><rect width=".5" height="15" x="281.2" y="133" fill="#E63625" rx="2" ry="2"/></g><g><title>try_to_wake_up (7 samples, 0.30%)</title><rect width="3.5" height="15" x="1174" y="133" fill="#E0A407" rx="2" ry="2"/></g><g><title>finish_task_switch (2 samples, 0.08%)</title><rect width="1" height="15" x="281.7" y="53" fill="#E46A01" rx="2" ry="2"/></g><g><title>arch_local_irq_restore (2 samples, 0.08%)</title><rect width="1" height="15" x="275.7" y="277" fill="#DC2302" rx="2" ry="2"/></g><g><title>futex_wait_queue_me (2 samples, 0.08%)</title><rect width="1" height="15" x="281.7" y="101" fill="#F19E35" rx="2" ry="2"/></g><g><title>perf_pmu_nop_int (2 samples, 0.08%)</title><rect width="1" height="15" x="1172.1" y="245" fill="#D1D41F" rx="2" ry="2"/></g><g><title>do_futex (1 samples, 0.04%)</title><rect width=".5" height="15" x="278.7" y="293" fill="#EC1A10" rx="2" ry="2"/></g></g></svg>